<svg version="1" xmlns="http://www.w3.org/2000/svg" width="506.667" height="506.667" viewBox="0 0 380.000000 380.000000"><path d="M107.4 47.3L25.5 94.6v190.8l81.9 47.3c45.1 26 82.3 47.3 82.7 47.3.3 0 37.5-21.3 82.5-47.3l81.9-47.2v-191l-81.9-47.2c-45-26-82.1-47.3-82.5-47.3-.4 0-37.6 21.3-82.7 47.3zm158.4 13l74.2 42.9-.2 86.6-.3 86.6-40 23.1c-22 12.7-55.3 31.9-74 42.7-18.7 10.8-34.5 19.8-35.1 20-.6.2-34.7-19-75.7-42.7l-74.7-43 .3-86.9.2-87 74-42.8c40.7-23.5 74.7-42.6 75.6-42.5.8.1 34.9 19.5 75.7 43z"/><path d="M187.9 33.1c-3.9 2.1-50.9 29-61.4 35.2-10.9 6.4-17.4 10.7-11.7 7.7 2.2-1.1 2.3-1 1.3.9-1.6 2.9-1.5 108.1.1 111.6 1.8 4.1 5.7 5.5 14.8 5.5 9.3 0 13.1-1.5 16-6.3 1.7-2.7 2-5.1 2-16.2 0-7.2.5-14.6 1-16.6 5.1-18.4 28.9-20.8 38.1-3.9 1.2 2 1.5 19.3 1.9 95.2.5 91.1.5 92.8 2.5 94.7 1.1 1.1 2.9 2.1 4.1 2.3 2 .3 129.1-72.2 130.6-74.6 1.8-2.7.8-7.8-2.1-10.7l-2.9-2.9h-30.9c-28.8 0-31 .1-34 2-1.8 1-3.9 3.2-4.7 4.8-3.1 6.1-11.4 11.2-18.1 11.2-7.3 0-15.5-5.5-18.6-12.5-1.8-3.8-1.9-9.5-1.9-106.9 0-72.2-.3-104-1.1-106.6-1-3.2-2.2-4.3-10.6-9-9.7-5.5-11.8-6.2-14.4-4.9zM213 44.4c0 .3.9 1 2 1.6 1.1.6 2 .8 2 .6 0-.3-.9-1-2-1.6-1.1-.6-2-.8-2-.6zM232 55.4c0 .3.9 1 2 1.6 1.1.6 2 .8 2 .6 0-.3-.9-1-2-1.6-1.1-.6-2-.8-2-.6zM239 59.4c0 .3.9 1 2 1.6 1.1.6 2 .8 2 .6 0-.3-.9-1-2-1.6-1.1-.6-2-.8-2-.6zM246 63.4c0 .3.9 1 2 1.6 1.1.6 2 .8 2 .6 0-.3-.9-1-2-1.6-1.1-.6-2-.8-2-.6z"/><path d="M260.2 75c-1.8 1.1-3.7 3.2-4.2 4.6-1.4 3.5-1.3 140.4 0 143.9 2 5.2 5.2 5.6 37.7 5.3l29.5-.3 2.4-2.8 2.4-2.8v-56.3l-.1-56.2L297.7 93c-16.6-9.6-31.1-18-32.2-18.7-1.7-1-2.6-.9-5.3.7zM88.4 90.6c-1.8 1.4-1.8 1.5.4.4 1.2-.6 2.2-1.3 2.2-1.5 0-.8-.5-.6-2.6 1.1zM81.4 94.6c-1.8 1.4-1.8 1.5.4.4 1.2-.6 2.2-1.3 2.2-1.5 0-.8-.5-.6-2.6 1.1zM63 105.1c-3.6 2.1-7.2 4.3-8 4.8-1.3.8-1.5 10.5-1.8 75.2-.3 77.3 0 83.3 3.8 85.7 11 6.8 91.8 52.9 87.8 50-1.5-1.1-1.3-1.4 1.3-3.9l2.9-2.7v-43.7c0-38.4-.2-44-1.6-46.4-2.3-3.9-4.9-5.2-11.5-5.8-8.8-.8-14.8.4-18.1 3.7l-2.8 2.8V239c0 17.5-1 22-6.4 27.5-8.9 9.3-23.6 8.2-31.1-2.4l-3-4.3-.5-77c-.5-75.5-.5-77-2.5-78.5-1.1-.8-1.9-1.9-1.7-2.4.3-1.1.8-1.4-6.8 3.2zM192.7 346.1c-.9.5-2.2.7-2.9.3-.7-.4-.8-.3-.4.4.9 1.6 1.8 1.5 4.2-.3 2.2-1.7 1.7-1.9-.9-.4z"/></svg>