  <svg xmlns="http://www.w3.org/2000/svg" viewBox="3 3 250 250" >
                        <path fill="#FFF" d="m208.9 114.9c33.8-0.4 8.9-29.3-6.7-36.6 0 0 20.6-48.3 18.5-49.6-0.3-0.2-24.6 47.4-24.6 47.4-12.5-5.1-24.8-7.7-38.2-9.5C142.2 35.2 125.7 19.3 113 21.6 99.7 23.9 92.3 33.2 91.1 56.7 71 34.9 60.1 64.8 62.7 83 38.7 84.1 20.6 99.4 20.6 99.4c0 0 28.6-11 42.8-10.4 0.7 14.3 4.3 26.5 10.3 39.6-25.1 36.8-34.5 88.7 26.2 62-8.9 23.2 11.4 23.6 35.6 11.4l29.3 34.7-23.4-38.8c11.9-8.4 20-18.1 28.3-30.1 69.4 4.8 83.6-21 39.2-52.8zM145.3 66c-19.9-0.4-38.2 9.7-38.2 9.7 1.2-35.5 18.7-43.4 38.2-9.7zM91.2 82.9 74.9 82.5C72.5 70.4 81.1 57.1 90.4 65.2 88.6 68.6 90.6 79.5 91.2 82.9zM79.8 138.9c16.8 27.5 22.6 28.9 22.6 28.9-29.8 12.8-38.8 1.2-22.6-28.9zm41.1 37.2 8.9 15.1c-20.6 10.3-33.8-0.5-8.9-15.1zm14.7 11.3c-2.1-4.8-3.4-7.4-5.3-11.9 6.2-2.9 18.8-7.7 18.8-7.7 0 0-14.9 1.3-18.5 1.8 14-10.1 46.9-50.2 46.9-50.2l-9.2-4.7c-17.1 19-33.9 35.7-56.6 49.2-29.7-32.8-33.2-50.2-36.9-74.4 0 0 11.1 0.9 15.4 1.4-2 7.6-3.4 22.4-3.4 22.4 0 0 2.3-13 7.7-18.5 4.3 22 18.9 64.5 18.9 64.5l8.5-6C115.1 128.7 108.2 105.2 107.6 79.6c31.4-11.7 59.9-3.7 82.1 6.5-3 3.9-8.7 11.4-8.7 11.4 0 0-9.5-10.9-17.7-14.7 5.6 5.8 10.8 11.9 13.8 17.1-21.8-7-66.1-15.1-66.1-15.1l0.3 9.6c25.4 5 48.4 12.8 71.3 24.9-10.1 31.8-22.3 53.5-47 68.1zm38.8-28.1c6.4-11.5 11.9-25.7 13.1-37.2 24 18.1 30.5 35.3-13.1 37.2zm28.3-48-15.6-6.9c0 0 6.3-9.7 9.4-14.4 17.4 13.5 13.4 19.7 6.3 21.4z"
                        />
                    </svg>