<svg xmlns="http://www.w3.org/2000/svg" viewBox="0 0 50 50" width="100" height="100" style="fill: rgb(255, 255, 255);">
    <path style="text-indent:0;text-align:start;line-height:normal;text-transform:none;block-progression:tb;-inkscape-font-specification:Sans" d="M 18.90625 7 C 18.90625 7 12.538104 7.435604 8.375 10.78125 A 1.0001 1.0001 0 0 0 8.3125 10.8125 C 7.5903547 11.47949 7.0464968 12.51382 6.375 14 C 5.7035032 15.48618 4.9902846 17.393114 4.34375 19.53125 C 3.0506809 23.807523 2 29.060162 2 34 A 1.0001 1.0001 0 0 0 2.125 34.5 C 3.585748 37.065717 6.272246 38.617961 8.78125 39.59375 C 11.290254 40.569539 13.605888 40.962379 14.78125 41 A 1.0001 1.0001 0 0 0 15.625 40.59375 L 18.0625 37.21875 C 20.028764 37.683636 22.331476 38 25 38 C 27.668524 38 29.971236 37.683636 31.9375 37.21875 L 34.375 40.59375 A 1.0001 1.0001 0 0 0 35.21875 41 C 36.394532 40.96238 38.709857 40.569547 41.21875 39.59375 C 43.727643 38.617953 46.41428 37.065668 47.875 34.5 A 1.0001 1.0001 0 0 0 48 34 C 48 29.060162 46.949319 23.807523 45.65625 19.53125 C 45.009715 17.393114 44.296497 15.48618 43.625 14 C 42.953503 12.51382 42.409645 11.47949 41.6875 10.8125 A 1.0001 1.0001 0 0 0 41.625 10.78125 C 37.461896 7.435604 31.09375 7 31.09375 7 A 1.0001 1.0001 0 0 0 30.875 7 A 1.0001 1.0001 0 0 0 30.09375 7.59375 C 30.09375 7.59375 29.75447 8.3414069 29.53125 9.40625 C 27.581488 9.0929454 25.9395 9 25 9 C 24.0605 9 22.418512 9.0929454 20.46875 9.40625 C 20.24553 8.3414069 19.90625 7.59375 19.90625 7.59375 A 1.0001 1.0001 0 0 0 18.90625 7 z M 18.28125 9.15625 C 18.354156 9.3610668 18.406003 9.5513498 18.46875 9.78125 C 16.213225 10.304934 13.745869 11.162007 11.4375 12.59375 A 1.0001 1.0001 0 1 0 12.46875 14.28125 C 17.100605 11.408387 22.998013 11 25 11 C 27.001987 11 32.899395 11.408387 37.53125 14.28125 A 1.0001 1.0001 0 1 0 38.5625 12.59375 C 36.254131 11.162007 33.786775 10.304934 31.53125 9.78125 C 31.593997 9.5513498 31.645844 9.3610668 31.71875 9.15625 C 32.857864 9.2958313 37.292393 9.8930172 40.3125 12.28125 C 40.506855 12.46076 41.187153 13.459711 41.8125 14.84375 C 42.437847 16.227789 43.09441 18.029011 43.71875 20.09375 C 44.937443 24.124055 45.921328 29.096617 45.96875 33.65625 C 44.832028 35.496049 42.699331 36.863353 40.5 37.71875 C 38.498229 38.49731 36.631968 38.843279 35.65625 38.9375 L 33.96875 36.65625 C 34.826974 36.379469 35.602538 36.079733 36.28125 35.78125 C 38.805075 34.671327 40.15625 33.5 40.15625 33.5 A 1.006934 1.006934 0 1 0 38.8125 32 C 38.8125 32 37.766675 32.958173 35.46875 33.96875 C 34.623414 34.34051 33.603384 34.708072 32.4375 35.03125 A 1.0001 1.0001 0 0 0 31.6875 35.25 C 29.824428 35.703731 27.611294 36 25 36 C 22.371435 36 20.151719 35.677316 18.28125 35.21875 A 1.0001 1.0001 0 0 0 17.5625 35.0625 C 16.392879 34.738763 15.378706 34.341443 14.53125 33.96875 C 12.233325 32.958173 11.1875 32 11.1875 32 A 1.0001 1.0001 0 0 0 10.34375 31.75 A 1.0001 1.0001 0 0 0 9.84375 33.5 C 9.84375 33.5 11.194925 34.671327 13.71875 35.78125 C 14.397462 36.079733 15.173026 36.379469 16.03125 36.65625 L 14.34375 38.9375 C 13.368408 38.843283 11.501894 38.497317 9.5 37.71875 C 7.3005345 36.863345 5.1679615 35.496007 4.03125 33.65625 C 4.078672 29.096617 5.0625571 24.124055 6.28125 20.09375 C 6.9055904 18.029011 7.5621531 16.227789 8.1875 14.84375 C 8.8128469 13.459711 9.4931453 12.46076 9.6875 12.28125 C 12.707607 9.8930172 17.142136 9.2958313 18.28125 9.15625 z M 18.5 21 C 15.949357 21 14 23.317976 14 26 C 14 28.682024 15.949357 31 18.5 31 C 21.050643 31 23 28.682024 23 26 C 23 23.317976 21.050643 21 18.5 21 z M 31.5 21 C 28.949357 21 27 23.317976 27 26 C 27 28.682024 28.949357 31 31.5 31 C 34.050643 31 36 28.682024 36 26 C 36 23.317976 34.050643 21 31.5 21 z M 18.5 23 C 19.815351 23 21 24.263746 21 26 C 21 27.736254 19.815351 29 18.5 29 C 17.184649 29 16 27.736254 16 26 C 16 24.263746 17.184649 23 18.5 23 z M 31.5 23 C 32.815351 23 34 24.263746 34 26 C 34 27.736254 32.815351 29 31.5 29 C 30.184649 29 29 27.736254 29 26 C 29 24.263746 30.184649 23 31.5 23 z" color="#000" overflow="visible" font-family="Sans"/>
</svg>