<?xml version="1.0" encoding="utf-8"?>
<!-- Generator: Adobe Illustrator 18.1.1, SVG Export Plug-In . SVG Version: 6.00 Build 0)  -->
<svg version="1.1" id="Слой_1" xmlns="http://www.w3.org/2000/svg" xmlns:xlink="http://www.w3.org/1999/xlink" x="0px" y="0px"
	 width="399.8px" height="382.7px" viewBox="0 0 399.8 382.7" style="enable-background:new 0 0 399.8 382.7;" xml:space="preserve"
	>
<style type="text/css">
	.st0{fill:#A55B36;}
	.st1{fill:#5A8D3E;}
	.st2{fill:#FFFFFF;}
	.st3{fill:#0445FF;}
	.st4{fill:none;stroke:#000000;stroke-width:2;stroke-linecap:round;stroke-miterlimit:10;}
	.st5{fill:none;stroke:#000000;stroke-width:1.75;stroke-linecap:round;stroke-miterlimit:10;}
	.st6{fill:none;stroke:#000000;stroke-width:1.75;stroke-miterlimit:10;}
</style>
<g id="XMLID_1_">
	<g>
		<path class="st0" d="M330.4,288.7l-0.3-0.3c0,0-95.7-4.5-103.1-4.8c-7.4-0.4-64.5-11.3-74-13c-9.5-1.7-19,0.3-31.3,0
			c-12.3-0.3-12.7-14.3-12.7-14.3s4.7-34.3,47-25.8c42.3,8.5,97.3,16.5,97.3,16.5s15.7,1.7,52,1.7s64.8-18.2,64.8-18.2h1
			c0,0,7.6,1,7.6,11s-19.4,19.2-19.4,19.2v2.3c0,0,3.8,4,3.8,7.3s-5,18.3-32.5,18.3C330.7,288.4,330.6,288.5,330.4,288.7z"/>
		<path class="st1" d="M3.6,225.6c-0.2-23.7,3.9-48.6,4.7-52.8c1.6-8.4,25.7-63.2,36-68.2c0.7-0.3,2.3-1.6,2.9-2
			c3.2-2.1,11.5-6.8,17.4-6.8c0,0,27.3-88.3,94.5-88.3c0,0,29.3-3,64.2,24C235.6,49.7,235.9,65,235.9,65c0,9.8,27.8,22.8,27.8,27.8
			s-2.3,7-2.3,7c-21-11.3-62-10-62-10c-21.3,0-52,26.3-63,26.3c-1-0.3-17,0-19,0s-3.7,1-3.7,5.3c0,4.3,4.7,5.3,4.7,5.3l10.7,0.3
			l11,2.2c20.7,15.8,34.3,22.8,46,23.5c0.6,0,1.3,0.1,2.1,0.1c12.4,0.5,35.6-0.1,35.6-0.1s15.3-1.9,28.2-6.4
			c5.9-2.1,11.2-4.7,14.5-7.9c0,0,2,4.7,3.3,6c1.3,1.3,38.6,5.8,40,6c0,0,0,0,0,0c28.4,0,48-3.2,60.4-6.2c10.2-2.5,15.4-5,16.6-5.6
			l-0.1,4c0,1.9-1.1,3.6-2.8,4.5l-11.5,6.1c0,0-3.2,13-30.7,25.3c0,0,31.8,23.8,29.5,51.8h-1c0,0-28.4,18.2-64.8,18.2
			s-52-1.7-52-1.7s-55-8-97.3-16.5c-42.3-8.5-47,25.8-47,25.8s0.3,14,12.7,14.3c12.3,0.3,21.8-1.7,31.3,0c9.5,1.7,66.6,12.6,74,13
			c7.4,0.3,103.1,4.8,103.1,4.8l0.3,0.3c-1.9,2.3-15.5,17.5-51.3,30.4c0,0-10.1,1-10.4,4c-0.1,0.6-0.1,1.2-0.1,1.8h-0.3h-9h-1
			c0,0-15.3,3-21.6,3c-6.3,0-69.3,0-69.3,0s-86.7-1-148-34.5h-0.5c0,0-10.8-15-10.8-17.3C8.2,274.9,3.8,250.9,3.6,225.6z"/>
		<path class="st2" d="M393.9,124.9c0.3,5.3,3.8,5.3-7.3,13.8v0.1c-1.2,0.6-6.4,3-16.6,5.6l-0.2-0.8c0,0,0.3-31-31-31
			s-29.2,31.4-29.2,37.5l0,0.5c-1.4-0.2-38.6-4.6-40-6c-1.4-1.4-3.3-6-3.3-6s6-10,6-16.7c0,0,0.1,0,0.3-0.1
			c3.4-1.2,40.8-13.6,87.1-13.6c0,0,20.9,1.2,31.6,10.7l0,0C392.4,120.2,393.8,122.1,393.9,124.9z"/>
		<path class="st1" d="M392.4,111.1v2.8c0,0-0.5,2.5-2,3c-0.7,0.2,0,0.9,1,2.1c-10.7-9.6-31.6-10.7-31.6-10.7
			c-46.3,0-83.7,12.4-87.1,13.6l-0.3-0.9c0,0-2-6.7-3.7-9c-1.7-2.3-23.7-1-34,0c-19.6,0-61,17.5-94.7,17.5l-11-2.2l-10.7-0.3
			c0,0-4.7-1-4.7-5.3c0-4.3,1.7-5.3,3.7-5.3s18-0.3,19,0c11,0,41.7-26.3,63-26.3c0,0,41-1.3,62,10c0,0,2.3-2,2.3-7
			s-27.8-18-27.8-27.8c0,0-0.4-15.3-12.6-33.4c0,0,33.7-18.9,54.9-18.9c40.3,0,56.5,30.7,56.5,52.2c0,0,19.7,2.4,35.7,19.2v4.8
			c0,0,8,0.8,13,8.5v7.5C383.4,104.9,388.4,106.4,392.4,111.1z"/>
		<path d="M369.9,143.5l0.2,0.8c-12.4,3.1-32,6.2-60.4,6.2c0,0,0,0,0,0l0-0.5c0-6.1-2.2-37.5,29.2-37.5S369.9,143.5,369.9,143.5z
			 M352.8,135c0-3.6-2.6-4.5-3.8-4.7c-0.4-0.1-0.8,0-1.1,0.1c-1.4,0.4-5.4,1.9-5.4,4.3c0,3,3.8,6.1,5.9,6.1S352.8,139.8,352.8,135z
			 M335.5,124.6c0-4.2-3.3-3.7-3.3-3.7s-5.3,0.5-5.3,3.2c0,2.7,4.5,4.1,4.7,4C331.7,127.9,335.5,128.8,335.5,124.6z M328.8,143.7
			c0,0,2.9-0.3,2.8-2.8c0-1.2-0.7-1.9-1.4-2.2c-0.9-0.5-1.9-0.4-2.8,0.1c-0.7,0.4-1.3,1.1-1.3,2.2
			C326,143.3,328.8,143.7,328.8,143.7z"/>
		<path class="st2" d="M349,130.4c1.2,0.2,3.8,1,3.8,4.7c0,4.7-2.4,5.9-4.4,5.9s-5.9-3.1-5.9-6.1c0-2.5,4-3.9,5.4-4.3
			C348.3,130.4,348.7,130.3,349,130.4z"/>
		<path class="st2" d="M332.2,121c0,0,3.3-0.5,3.3,3.7c0,4.2-3.7,3.3-3.9,3.5c-0.2,0.2-4.7-1.3-4.7-4
			C326.9,121.4,332.2,121,332.2,121z"/>
		<path class="st2" d="M331.6,140.9c0.1,2.5-2.8,2.8-2.8,2.8s-2.7-0.4-2.7-2.7c0-1.2,0.7-1.8,1.3-2.2c0.9-0.5,1.9-0.5,2.8-0.1
			C330.9,139,331.5,139.7,331.6,140.9z"/>
		<path class="st3" d="M316.9,378.9H6.4v-80c0,0,6.3-1.3,9.8-1.5h0.5c4,7.5,45,25.3,45,25.3c28.8,14.6,85.3,17.4,88.3,17.5l45.5,1.5
			c63.2,0,64-13.8,64-13.8v-3h9h0.3c0,2.2,0.1,4,0.1,4s28.3,18.6,33,24.6S307.2,356.9,316.9,378.9z"/>
		<path class="st2" d="M272.4,120.9l0.3,0.9c-0.2,0.1-0.3,0.1-0.3,0.1c0,6.7-6,16.7-6,16.7c-3.2,3.2-8.6,5.8-14.5,7.9l-0.3-0.6
			c0,0-4.7-31.3-36.5-26s-27,25.3-27,32.5l0,0.6c-0.7,0-1.4-0.1-2.1-0.1c-11.7-0.7-25.3-7.7-46-23.5c33.7,0,75.1-17.5,94.7-17.5
			c10.3-1,32.3-2.3,34,0C270.4,114.2,272.4,120.9,272.4,120.9z"/>
		<path class="st1" d="M259.4,324.9v3c0,0-0.8,13.8-64,13.8l-45.5-1.5c-3-0.1-59.5-2.9-88.3-17.5c0,0-41-17.8-45-25.3h-0.5
			c0,0-0.3-1.8,2.8-4h0.5c61.3,33.5,148,34.5,148,34.5s63,0,69.3,0c6.3,0,21.6-3,21.6-3H259.4z"/>
		<path d="M251.7,145.9l0.3,0.6c-12.9,4.5-28.2,6.4-28.2,6.4s-23.2,0.6-35.6,0.1l0-0.6c0-7.3-4.8-27.3,27-32.5
			S251.7,145.9,251.7,145.9z M234.2,138.6c0-2.1-2.1-3.4-3.7-4c-1.2-0.5-2.6-0.4-3.8,0.2c-1.5,0.8-3.5,2-3.5,3.4
			c0,2.3,1.7,6.4,4.9,6.4C231.3,144.5,234.2,142.1,234.2,138.6z M210.4,132.8c1.2-0.4,2.9-1.3,2.8-4c-0.1-4-4.3-4.1-4.3-4.1
			s-4.1,0.2-4.1,3.9c0,2.7,2.4,3.8,3.7,4.2C209.1,133,209.7,133,210.4,132.8z M213.2,146.6c0-1.5-1.7-2.3-2.5-2.5
			c-0.3-0.1-0.6-0.1-0.9,0c-1.5,0.4-2.4,1.5-2.4,2.5c0,0.6,0.9,2.6,2.5,2.6C211.5,149.1,213.2,148.5,213.2,146.6z"/>
		<path class="st2" d="M230.5,134.5c1.7,0.7,3.7,1.9,3.7,4c0,3.5-2.9,6-6.1,6c-3.2,0-4.9-4.1-4.9-6.4c0-1.4,2-2.6,3.5-3.4
			C227.9,134.1,229.3,134.1,230.5,134.5z"/>
		<path class="st2" d="M213.2,128.8c0.1,2.6-1.6,3.6-2.8,4c-0.6,0.2-1.3,0.2-1.9,0c-1.3-0.4-3.7-1.5-3.7-4.2c0-3.7,4.1-3.9,4.1-3.9
			S213.1,124.9,213.2,128.8z"/>
		<path class="st2" d="M210.6,144.1c0.8,0.3,2.5,1,2.5,2.5c0,2-1.7,2.5-3.3,2.5c-1.6,0-2.5-2-2.5-2.6c0-1,0.9-2.1,2.4-2.5
			C210,143.9,210.3,144,210.6,144.1z"/>
	</g>
	<g>
		<path class="st4" d="M391.4,118.9c1,1.3,2.4,3.2,2.5,5.9c0.3,5.3,3.8,5.3-7.3,13.8v0.1l-0.1,4c0,1.9-1.1,3.6-2.8,4.5l-11.5,6.1
			c0,0-3.2,13-30.7,25.3c0,0,31.8,23.8,29.5,51.8c0,0,7.6,1,7.6,11s-19.4,19.2-19.4,19.2v2.3c0,0,3.8,4,3.8,7.3s-5,18.3-32.5,18.3
			c0,0-0.1,0.1-0.2,0.3c-1.9,2.3-15.5,17.5-51.3,30.4c0,0-10.1,1-10.4,4c-0.1,0.6-0.1,1.2-0.1,1.8c0,2.2,0.1,4,0.1,4
			s28.3,18.6,33,24.6s5.3,3.4,15,25.4H6.4v-80c0,0,6.3-1.3,9.8-1.5c0,0-0.3-1.8,2.8-4c0,0-10.8-15-10.8-17.3
			c0-1.2-4.4-25.2-4.6-50.5c-0.2-23.7,3.9-48.6,4.7-52.8c1.6-8.4,25.7-63.2,36-68.2c0.7-0.3,2.3-1.6,2.9-2
			c3.2-2.1,11.5-6.8,17.4-6.8c0,0,27.3-88.3,94.5-88.3c0,0,29.3-3,64.2,24c0,0,33.7-18.9,54.9-18.9c40.3,0,56.5,30.7,56.5,52.2
			c0,0,19.7,2.4,35.7,19.2v4.8c0,0,8,0.8,13,8.5v7.5c0,0,5,1.5,9,6.3v2.8c0,0-0.5,2.5-2,3C389.7,117.1,390.4,117.7,391.4,118.9"/>
		<path class="st4" d="M272.7,121.8c3.4-1.2,40.8-13.6,87.1-13.6c0,0,20.9,1.2,31.6,10.7l0,0"/>
		<path class="st5" d="M386.9,138.6c0,0-0.1,0-0.3,0.1c-1.2,0.6-6.4,3-16.6,5.6c-12.4,3.1-32,6.2-60.4,6.2c0,0,0,0,0,0
			c-1.4-0.2-38.6-4.6-40-6c-1.4-1.4-3.3-6-3.3-6s6-10,6-16.7c0,0,0.1,0,0.3-0.1"/>
		<path class="st5" d="M266.4,138.5c-3.2,3.2-8.6,5.8-14.5,7.9c-12.9,4.5-28.2,6.4-28.2,6.4s-23.2,0.6-35.6,0.1
			c-0.7,0-1.4-0.1-2.1-0.1c-11.7-0.7-25.3-7.7-46-23.5"/>
		<path class="st5" d="M223.3,31.6C235.6,49.7,235.9,65,235.9,65c0,9.8,27.8,22.8,27.8,27.8s-2.3,7-2.3,7c-21-11.3-62-10-62-10
			c-21.3,0-52,26.3-63,26.3c-1-0.3-17,0-19,0s-3.7,1-3.7,5.3c0,4.3,4.7,5.3,4.7,5.3l10.7,0.3l11,2.2c33.7,0,75.1-17.5,94.7-17.5
			c10.3-1,32.3-2.3,34,0c1.7,2.3,3.7,9,3.7,9"/>
		<path class="st5" d="M370.2,230.4c0,0-28.4,18.2-64.8,18.2s-52-1.7-52-1.7s-55-8-97.3-16.5c-42.3-8.5-47,25.8-47,25.8
			s0.3,14,12.7,14.3c12.3,0.3,21.8-1.7,31.3,0c9.5,1.7,66.6,12.6,74,13c7.4,0.3,103.1,4.8,103.1,4.8"/>
		<path class="st4" d="M259.4,324.9v3c0,0-0.8,13.8-64,13.8l-45.5-1.5c-3-0.1-59.5-2.9-88.3-17.5c0,0-41-17.8-45-25.3"/>
		<path class="st4" d="M19.4,293.4c61.3,33.5,148,34.5,148,34.5s63,0,69.3,0c6.3,0,21.6-3,21.6-3h1h9"/>
		<path class="st5" d="M251.7,145.9c0,0-4.7-31.3-36.5-26s-27,25.3-27,32.5"/>
		<path class="st6" d="M369.9,143.5c0,0,0.3-31-31-31s-29.2,31.4-29.2,37.5"/>
	</g>
</g>
<path class="st4" d="M134.4,251.9H160c0.2,0,0.5,0,0.7,0.1c5.9,1.1,80.7,15.4,97.3,14.4c0,0,60.3,4.1,101.3-5"/>
<path class="st5" d="M95.4,269.2c0,0,3.3,19.3,26.3,21"/>
<path class="st5" d="M189.8,192.2c0,0,50.1-18.7,50.9-23"/>
<path class="st5" d="M306.1,189.5c0,0-23-12.7-29.7-14"/>
<path class="st5" d="M342.7,178.6c0,0-13.9,6.6-48.9,3.9"/>
<path class="st5" d="M253.6,83.5l-19.9-3c0,0-56-2.3-71,10.4c0,0-18.7,15.7-36.7,15.7"/>
<path class="st5" d="M121.8,66.5c0,0,13-10.7,31-17s43,0,43,0s21.7,6.7,41,18.7"/>
<path class="st4" d="M335.4,64.9h-7c0,0-5.7-2-6.3-2c-0.7,0-9.7,0-9.7,0s-5.3-2-6.3-2s-33.7,0-33.7,0s-23.3,1.7-36.5,4.2"/>
<path class="st4" d="M264.3,95.8c0,0,37.8-11.9,48.1-11.9c10.3,0,20,0,20,0s26.3,1.8,41.2,6"/>
<path class="st5" d="M385.4,105.9c0,0-18.7-10.2-33.7-11.4s-25-3.6-38-1.6s-40.7,8.7-47.3,10.7"/>
<path class="st4" d="M269.4,144.9v4c0,0-11.3,11-12.3,11h-6.5c-1.4,0-2.8,0.4-4,1.1l-4.9,2.9h-51.2c0,0-28.5-2.5-47.2-15.8"/>
<path class="st5" d="M64.7,95.9c0,0-4.6,26.3-4.2,31.7"/>
</svg>
